<svg xmlns="http://www.w3.org/2000/svg" viewBox="0 0 1024 1024" width="120" height="120">
  <rect width="1024" height="1024" fill="#1e3a5f" rx="80"/>
  <g transform="translate(0,1024) scale(0.1,-0.1)" fill="#ffffff" stroke="none">
    <path d="M7199 7653 l21 -18 3 -1768 c1 -1248 -1 -1767 -9 -1767 -52 0 -217 74 -319 143 -171 116 -353 372 -402 567 -23 90 -35 650 -30 1455 3 711 4 744 25 835 32 145 88 246 192 351 71 71 101 94 180 132 153 76 296 105 339 70z"/>
    <path d="M3287 7631 c244 -51 564 -212 803 -404 124 -101 388 -373 511 -527 219 -275 336 -443 759 -1090 343 -524 720 -1088 825 -1235 211 -295 387 -497 548 -633 117 -98 163 -128 332 -212 l150 -75 3 -392 c1 -216 -1 -393 -5 -393 -32 1 -194 44 -250 66 -291 115 -604 327 -860 582 -294 293 -435 486 -1120 1527 -773 1177 -1021 1519 -1239 1711 -211 187 -380 280 -588 325 -50 11 -101 27 -113 35 l-23 14 0 360 0 360 88 0 c48 0 128 -9 179 -19z"/>
    <path d="M3145 6358 c163 -53 333 -187 442 -348 65 -96 136 -259 154 -354 14 -74 23 -1961 11 -2226 -9 -187 -14 -226 -36 -295 -64 -197 -195 -354 -367 -439 -109 -53 -190 -76 -271 -76 l-58 0 0 1886 0 1886 33 -7 c17 -4 59 -16 92 -27z"/>
  </g>
</svg>
